{"title":"Whats Up Doc 1972 1080p BRRip H264","uid":5776339,"size":3754147118,"categoryP":"video","categoryS":"hd___movies","magnet":"?xt=urn:btih:e2c968d0f437d6f7aaefcbdbcdf4dca5491899e8&amp;dn=Whats+Up+Doc+1972+1080p+BRRip+H264&amp;tr=udp%3A%2F%2Ftracker.openbittorrent.com%3A80&amp;tr=udp%3A%2F%2Fopen.demonii.com%3A1337&amp;tr=udp%3A%2F%2Ftracker.coppersurfer.tk%3A6969&amp;tr=udp%3A%2F%2Fexodus.desync.com%3A6969","seeders":0,"leechers":1,"uploader":"hiest","files":-1,"time":1282281759,"description":"File Name\n\nWhats Up Doc 1972 1080p BRRip H264.mp4\n\nFile Size\nFormat : MPEG-4\nFormat profile : Base Media\nCodec ID : isom\nFile size : 3.71 GiB\nDuration : 1h 33mn\nOverall bit rate : 5 660 Kbps\n\nVideo\nID : 1\nFormat : AVC\nFormat/Info : Advanced Video Codec\nFormat profile : &lt;a class=&quot;__cf_email__&quot; href=&quot;/cdn-cgi/l/email-protection&quot; data-cfemail=&quot;3870515f5078740c1609&quot;&gt;[email&amp;#160;protected]&lt;/a&gt;&lt;script data-cfhash='f9e31' type=&quot;text/javascript&quot;&gt;\n/* &lt;![CDATA[ */!function(){try{var t=&quot;currentScript&quot;in document?document.currentScript:function(){for(var t=document.getElementsByTagName(&quot;script&quot;),e=t.length;e--;)if(t[e].getAttribute(&quot;data-cfhash&quot;))return t[e]}();if(t&amp;&amp;t.previousSibling){var e,r,n,i,c=t.previousSibling,a=c.getAttribute(&quot;data-cfemail&quot;);if(a){for(e=&quot;&quot;,r=parseInt(a.substr(0,2),16),n=2;a.length-n;n+=2)i=parseInt(a.substr(n,2),16)^r,e+=String.fromCharCode(i);e=document.createTextNode(e),c.parentNode.replaceChild(e,c)}t.parentNode.removeChild(t);}}catch(u){}}()/* ]]&gt; */&lt;/script&gt;\nFormat settings, CABAC : Yes\nFormat settings, ReFrames : 3 frames\nCodec ID : avc1\nCodec ID/Info : Advanced Video Coding\nDuration : 1h 33mn\nBit rate mode : Variable\nBit rate : 5 049 Kbps\nMaximum bit rate : 22.4 Mbps\nWidth : 1 920 pixels\nHeight : 1 080 pixels\nDisplay aspect ratio : 16:9\nFrame rate mode : Constant\nFrame rate : 23.976 fps\nResolution : 24 bits\nColorimetry : 4:2:0\nScan type : Progressive\nBits/(Pixel*Frame) : 0.102\nStream size : 3.31 GiB (95%)\n\nAudio \nID : 2\nFormat : AAC\nFormat/Info : Advanced Audio Codec\nFormat version : Version 4\nFormat profile : LC\nFormat settings, SBR : No\nCodec ID : 40\nDuration : 1h 33mn\nBit rate mode : Variable\nBit rate : 281 Kbps\nMaximum bit rate : 288 Kbps\nChannel(s) : 2 channels\nChannel positions : Front: L R\nSampling rate : 48.0 KHz\nResolution : 16 bits\nStream size : 189 MiB (5%)\n\nEnglish SRT : External\n\nLanguage : English\n\n &lt;a href=&quot;\nhttp://www.imdb.com/title/tt0078087/&quot; rel=&quot;nofollow&quot; target=&quot;_NEW&quot;&gt;\nhttp://www.imdb.com/title/tt0078087/&lt;/a&gt;\n\nRelease Date: 3 August 1978 (USA) \n\nGenre: Comedy | Music | Romance \n\nPlot: Two researchers have come to San Francisco to compete for a research grant in Music. One seems a bit distracted, and that was before he meets her. A strange woman seems to have devoted her life to confusing and embarassing him. At the same time a woman has her jewels stolen and a government whistle blower arrives with his stolen top secret papers. All, of course have the same style and color overnight bag.\n\nCast: \nBarbra Streisand ... Judy Maxwell\nRyan O'Neal ... Dr. Howard Bannister\nMadeline Kahn ... Eunice Burns\nKenneth Mars ... Hugh Simon\nAustin Pendleton ... Frederick Larrabee\nMichael Murphy ... Mr. Smith\nPhilip Roth ... Mr. Jones (as Phil Roth)\nSorrell Booke ... Harry\nStefan Gierasch ... Fritz\nMabel Albertson ... Mrs. Van Hoskins\nLiam Dunn ... Judge Maxwell\nJohn Hillerman ... Mr. Kaltenborn\nGeorge Morfogen ... Rudy, the Headwaiter\nGraham Jarvis ... Bailiff\nRandy Quaid ... Professor Hosquith\n\n\n\n &lt;a href=&quot;\nhttp://thepiratebay.se/user/hiest&quot; rel=&quot;nofollow&quot; target=&quot;_NEW&quot;&gt;\nhttp://thepiratebay.se/user/hiest&lt;/a&gt;\n\n\n\n\nScreenshots\n &lt;a href=&quot;\nhttp://www.imagebam.com/image/f40fed93828775&quot; rel=&quot;nofollow&quot; target=&quot;_NEW&quot;&gt;\nhttp://www.imagebam.com/image/f40fed93828775&lt;/a&gt;\n &lt;a href=&quot;\nhttp://www.imagebam.com/image/c2aef493828854&quot; rel=&quot;nofollow&quot; target=&quot;_NEW&quot;&gt;\nhttp://www.imagebam.com/image/c2aef493828854&lt;/a&gt;\n &lt;a href=&quot;\nhttp://www.imagebam.com/image/1aa41493828904&quot; rel=&quot;nofollow&quot; target=&quot;_NEW&quot;&gt;\nhttp://www.imagebam.com/image/1aa41493828904&lt;/a&gt;\n &lt;a href=&quot;\nhttp://www.imagebam.com/image/4fff9693828956&quot; rel=&quot;nofollow&quot; target=&quot;_NEW&quot;&gt;\nhttp://www.imagebam.com/image/4fff9693828956&lt;/a&gt;\n &lt;a href=&quot;\nhttp://www.imagebam.com/image/5d90d193829037&quot; rel=&quot;nofollow&quot; target=&quot;_NEW&quot;&gt;\nhttp://www.imagebam.com/image/5d90d193829037&lt;/a&gt;\n &lt;a href=&quot;\nhttp://www.imagebam.com/image/fd2b0993829144&quot; rel=&quot;nofollow&quot; target=&quot;_NEW&quot;&gt;\nhttp://www.imagebam.com/image/fd2b0993829144&lt;/a&gt;\n &lt;a href=&quot;\nhttp://www.imagebam.com/image/60edf293829226&quot; rel=&quot;nofollow&quot; target=&quot;_NEW&quot;&gt;\nhttp://www.imagebam.com/image/60edf293829226&lt;/a&gt;\n &lt;a href=&quot;\nhttp://www.imagebam.com/image/25b7aa93829277&quot; rel=&quot;nofollow&quot; target=&quot;_NEW&quot;&gt;\nhttp://www.imagebam.com/image/25b7aa93829277&lt;/a&gt;\n &lt;a href=&quot;\nhttp://www.imagebam.com/image/e9ea2c93829361&quot; rel=&quot;nofollow&quot; target=&quot;_NEW&quot;&gt;\nhttp://www.imagebam.com/image/e9ea2c93829361&lt;/a&gt;","torrent":{"xt":"urn:btih:e2c968d0f437d6f7aaefcbdbcdf4dca5491899e8","amp;dn":"Whats+Up+Doc+1972+1080p+BRRip+H264","amp;tr":["udp%3A%2F%2Ftracker.openbittorrent.com%3A80","udp%3A%2F%2Fopen.demonii.com%3A1337","udp%3A%2F%2Ftracker.coppersurfer.tk%3A6969","udp%3A%2F%2Fexodus.desync.com%3A6969"],"infoHash":"e2c968d0f437d6f7aaefcbdbcdf4dca5491899e8","infoHashBuffer":{"type":"Buffer","data":[226,201,104,208,244,55,214,247,170,239,203,219,205,244,220,165,73,24,153,232]},"announce":[],"urlList":[]}}